<?xml version="1.0" encoding="UTF-8" standalone="no"?>
<svg
   xmlns:dc="http://purl.org/dc/elements/1.1/"
   xmlns:cc="http://creativecommons.org/ns#"
   xmlns:rdf="http://www.w3.org/1999/02/22-rdf-syntax-ns#"
   xmlns:svg="http://www.w3.org/2000/svg"
   xmlns="http://www.w3.org/2000/svg"
   xmlns:sodipodi="http://sodipodi.sourceforge.net/DTD/sodipodi-0.dtd"
   xmlns:inkscape="http://www.inkscape.org/namespaces/inkscape"
   width="16"
   height="16"
   version="1.1"
   id="svg8"
   sodipodi:docname="tick.svg"
   inkscape:version="0.92.1 r15371">
  <metadata
     id="metadata14">
    <rdf:RDF>
      <cc:Work
         rdf:about="">
        <dc:format>image/svg+xml</dc:format>
        <dc:type
           rdf:resource="http://purl.org/dc/dcmitype/StillImage" />
        <dc:title />
      </cc:Work>
    </rdf:RDF>
  </metadata>
  <defs
     id="defs12" />
  <sodipodi:namedview
     pagecolor="#ffffff"
     bordercolor="#666666"
     borderopacity="1"
     objecttolerance="10"
     gridtolerance="10"
     guidetolerance="10"
     inkscape:pageopacity="0"
     inkscape:pageshadow="2"
     inkscape:window-width="1920"
     inkscape:window-height="1017"
     id="namedview10"
     showgrid="false"
     inkscape:zoom="14.75"
     inkscape:cx="-1.6271186"
     inkscape:cy="8"
     inkscape:window-x="-8"
     inkscape:window-y="-8"
     inkscape:window-maximized="1"
     inkscape:current-layer="svg8" />
  <style
     type="text/css"
     id="style2">.icon-canvas-transparent{opacity:0;fill:#F6F6F6;} .icon-vs-out{opacity:0;fill:#F6F6F6;} .icon-vs-fg{opacity:0;fill:#F0EFF1;} .icon-folder{fill:#C5C5C5;}</style>
  <path
     class="icon-canvas-transparent"
     d="M16 16h-16v-16h16v16z"
     id="canvas" />
  <path
     class="icon-vs-out"
     d="M16 2.5v10c0 .827-.673 1.5-1.5 1.5h-11.996c-.827 0-1.5-.673-1.5-1.5v-8c0-.827.673-1.5 1.5-1.5h2.886l1-2h8.11c.827 0 1.5.673 1.5 1.5z"
     id="outline" />
  <path
     class="icon-vs-fg"
     d="M14 3v1h-6.5l.5-1h6z"
     id="iconFg" />
  <path
     inkscape:connector-curvature="0"
     class="icon-canvas-transparent"
     d="M 16.305081,16.644067 H 0.3050847 V 0.64406778 H 16.305081 Z"
     id="canvas-5"
     style="opacity:0;fill:#c5c5c5;fill-opacity:1" />
  <path
     inkscape:connector-curvature="0"
     class="icon-vs-out"
     d="m 16.305081,3.1440678 v 9.9999992 c 0,0.827 -0.673,1.5 -1.5,1.5 H 2.8090848 c -0.8269999,0 -1.5,-0.673 -1.5,-1.5 V 5.1440678 c 0,-0.827 0.6730001,-1.5 1.5,-1.5 h 2.886 l 1,-2 h 8.1099962 c 0.827,0 1.5,0.673 1.5,1.5 z"
     id="outline-0"
     style="opacity:0;fill:#c5c5c5;fill-opacity:1" />
  <g
     id="g3"
     transform="matrix(1.0019139,0,0,1.5925032,-4.0344503,-11.527816)"
     style="fill:#c5c5c5;fill-opacity:1">
    <path
       style="fill:#1278BD;fill-opacity:1"
       inkscape:connector-curvature="0"
       id="path1"
       transform="matrix(0.375,0,0,0.375,6,8.2978123)"
       d="M 28.166016,0 32,3.8740238 11.496002,19.745 0,7.9879777 4.4200134,4.6370251 12.070007,12.476016 Z" />
  </g>
</svg>
